<svg id="Capa_1" enable-background="new 0 0 512.006 512.006" height="512" viewBox="0 0 512.006 512.006" width="512" xmlns="http://www.w3.org/2000/svg"><g><path d="m307.597 208.28c0-10.464-8.483-18.947-18.947-18.947h-9.643c-10.464 0-18.947 8.483-18.947 18.947v-22.337c0-13.127-10.642-23.769-23.769-23.769h-8.776c-13.127 0-23.769 10.642-23.769 23.768v-8.776c0-13.127-10.642-23.768-23.768-23.768h-8.776c-13.127 0-23.768 10.641-23.768 23.768v21.766-153.125c0-16.003-12.973-28.977-28.977-28.977-15.098 0-27.337 12.239-27.337 27.337v221.154l-33.841-19.538c-16.77-9.682-38.214-3.936-47.896 12.834-1.693 2.932-1.205 6.637 1.189 9.031l114.157 114.157c14.538 14.538 22.705 34.255 22.705 54.814v21.687h133.673v-56.719c0-10.689 3.272-21.185 9.664-29.754 10.566-14.165 16.827-31.725 16.827-50.756v-112.797z" fill="#00000000" /><path d="m288.65 189.333h-9.643c-.474 0-.945.018-1.41.052v111.692c0 19.031-6.261 36.591-16.827 50.756-6.391 8.568-9.664 19.064-9.664 29.754v20.564c0 19.968-16.187 36.155-36.155 36.155h-67.517v20h133.673v-56.719c0-10.689 3.272-21.185 9.664-29.754 10.566-14.165 16.827-31.725 16.827-50.756v-112.797c-.001-10.464-8.484-18.947-18.948-18.947z" fill="#00000000" /><path d="m233.835 61.841v-24.406c0-1.348-1.093-2.441-2.441-2.441h-49.514c-1.348 0-2.441 1.093-2.441 2.441v22.367c0 1.348-1.093 2.441-2.441 2.441h-29.563v39.004h29.563c1.348 0 2.441 1.093 2.441 2.441v22.367c0 1.348 1.093 2.441 2.441 2.441h49.514c1.348 0 2.441-1.093 2.441-2.441v-24.405c0-1.348-1.093-2.441-2.441-2.441h-22.225c-1.348 0-2.441-1.093-2.441-2.441v-30.044c0-1.348 1.093-2.441 2.441-2.441h22.225c1.348 0 2.441-1.093 2.441-2.442z" fill="#00000000" /><path d="m291.299 504.506h-154.058c-1.834 0-3.321-1.487-3.321-3.321v-39.561c0-1.834 1.487-3.321 3.321-3.321h154.058c1.834 0 3.321 1.487 3.321 3.321v39.561c0 1.834-1.487 3.321-3.321 3.321z" fill="#00000000" /><path d="m291.299 458.303h-36.679v1.389c0 13.704-11.11 24.814-24.814 24.814h-95.886v16.679c0 1.834 1.487 3.321 3.321 3.321h154.058c1.834 0 3.321-1.487 3.321-3.321v-39.561c0-1.834-1.487-3.321-3.321-3.321z" fill="#00000000" /><path d="m314.114 9.468v146.446c0 1.087.881 1.968 1.968 1.968h16.815c1.087 0 1.968.881 1.968 1.968v35.026c0 1.753 2.12 2.631 3.36 1.392l37.81-37.809c.369-.369.87-.576 1.392-.576h124.226c1.087 0 1.968-.881 1.968-1.968v-146.447c0-1.087-.881-1.968-1.968-1.968h-185.57c-1.088 0-1.969.881-1.969 1.968z" fill="#00000000" /><path d="m501.652 7.5h-38.032v81.281c0 27.118-21.983 49.101-49.101 49.101h-100.405v18.032c0 1.087.881 1.968 1.968 1.968h16.815c1.087 0 1.968.881 1.968 1.968v35.026c0 1.753 2.12 2.631 3.36 1.392l37.81-37.809c.369-.369.87-.576 1.392-.576h124.226c1.087 0 1.968-.881 1.968-1.968v-146.447c-.001-1.087-.882-1.968-1.969-1.968z" fill="#00000000" /><path d="m91.12 295.486c4.142 0 7.5-3.358 7.5-7.5v-68.018c0-4.142-3.358-7.5-7.5-7.5s-7.5 3.358-7.5 7.5v32.362l-22.591-13.043c-20.326-11.734-46.407-4.746-58.141 15.579-3.384 5.861-2.405 13.297 2.381 18.084l114.157 114.157c13.225 13.225 20.508 30.809 20.508 49.511v14.185h-2.692c-5.967 0-10.821 4.854-10.821 10.821v39.561c0 5.967 4.854 10.821 10.821 10.821h154.058c5.967 0 10.821-4.854 10.821-10.821v-39.561c0-5.967-4.854-10.821-10.821-10.821h-2.692v-49.217c0-9.227 2.903-18.201 8.175-25.269 11.982-16.064 18.315-35.166 18.315-55.24v-112.797c0-14.583-11.864-26.447-26.447-26.447h-9.643c-4.112 0-8.007.943-11.482 2.625-.778-16.555-14.49-29.783-31.234-29.783h-8.776c-7.677 0-14.716 2.781-20.165 7.388-5.335-9.63-15.605-16.165-27.373-16.165h-8.776c-5.955 0-11.526 1.673-16.269 4.574v-41.724h17.004v17.309c0 5.481 4.459 9.941 9.941 9.941h49.514c5.482 0 9.941-4.459 9.941-9.941v-24.407c0-5.481-4.459-9.941-9.941-9.941h-17.166v-19.926h17.166c5.482 0 9.941-4.459 9.941-9.941v-24.407c0-5.482-4.459-9.941-9.941-9.941h-49.514c-5.481 0-9.941 4.459-9.941 9.941v17.309h-17.004v-8.937c0-20.113-16.363-36.477-36.477-36.477-19.209 0-34.837 15.628-34.837 34.837v140.802c0 4.142 3.358 7.5 7.5 7.5s7.5-3.358 7.5-7.5v-140.802c0-10.938 8.899-19.837 19.837-19.837 11.842 0 21.477 9.634 21.477 21.477v188.718c0 4.142 3.358 7.5 7.5 7.5s7.5-3.358 7.5-7.5v-57.358c0-8.971 7.298-16.269 16.269-16.269h8.776c8.971 0 16.269 7.298 16.269 16.269v57.358c0 4.142 3.358 7.5 7.5 7.5s7.5-3.358 7.5-7.5v-48.582c0-8.971 7.298-16.269 16.269-16.269h8.776c8.971 0 16.269 7.298 16.269 16.269v48.582c0 4.142 3.358 7.5 7.5 7.5s7.5-3.358 7.5-7.5v-26.245c0-6.312 5.135-11.447 11.447-11.447h9.643c6.312 0 11.447 5.135 11.447 11.447v112.797c0 16.818-5.304 32.818-15.338 46.271-7.191 9.642-11.152 21.8-11.152 34.238v49.217h-14.035c-4.142 0-7.5 3.358-7.5 7.5s3.358 7.5 7.5 7.5h27.549v31.203h-145.7v-31.203h83.151c4.142 0 7.5-3.358 7.5-7.5s-3.358-7.5-7.5-7.5h-69.638v-14.185c0-22.709-8.843-44.06-24.901-60.118l-114.156-114.133c7.6-13.163 24.49-17.688 37.651-10.089l30.091 17.373v18.335c0 4.142 3.358 7.5 7.5 7.5zm85.877-225.742c5.482 0 9.941-4.459 9.941-9.941v-17.309h39.396v14.289h-17.167c-5.481 0-9.941 4.459-9.941 9.941v30.043c0 5.482 4.459 9.941 9.941 9.941h17.167v14.289h-39.396v-17.309c0-5.481-4.459-9.941-9.941-9.941h-22.063v-24.003z" fill="#d0e6ff21" /><path d="m406.193 33.892c0-4.903-3.989-8.892-8.892-8.892h-22.566c-4.902 0-8.891 3.989-8.891 8.892v34.908c0 4.903 3.989 8.892 8.891 8.892h22.566c4.903 0 8.892-3.989 8.892-8.892zm-15 28.799h-10.349v-22.691h10.349z" fill="#d0e6ff21" /><path d="m357.995 68.8v-34.908c0-4.142-3.358-7.5-7.5-7.5s-7.5 3.358-7.5 7.5v34.908c0 4.142 3.358 7.5 7.5 7.5s7.5-3.358 7.5-7.5z" fill="#d0e6ff21" /><path d="m422.933 77.691h22.566c4.903 0 8.892-3.989 8.892-8.892v-34.907c0-4.903-3.989-8.892-8.892-8.892h-22.566c-4.902 0-8.891 3.989-8.891 8.892v34.908c0 4.903 3.989 8.891 8.891 8.891zm6.109-37.691h10.349v22.691h-10.349z" fill="#d0e6ff21" /><path d="m469.74 76.3c4.142 0 7.5-3.358 7.5-7.5v-34.908c0-4.142-3.358-7.5-7.5-7.5s-7.5 3.358-7.5 7.5v34.908c0 4.142 3.358 7.5 7.5 7.5z" fill="#d0e6ff21" /><path d="m454.391 131.491v-34.908c0-4.902-3.989-8.891-8.892-8.891h-22.566c-4.902 0-8.891 3.989-8.891 8.891v34.909c0 4.902 3.989 8.891 8.891 8.891h22.566c4.903-.001 8.892-3.989 8.892-8.892zm-15-6.109h-10.349v-22.691h10.349z" fill="#d0e6ff21" /><path d="m462.24 131.491c0 4.142 3.358 7.5 7.5 7.5s7.5-3.358 7.5-7.5v-34.908c0-4.142-3.358-7.5-7.5-7.5s-7.5 3.358-7.5 7.5z" fill="#d0e6ff21" /><path d="m391.193 96.583v34.909c0 4.142 3.358 7.5 7.5 7.5s7.5-3.358 7.5-7.5v-34.909c0-4.142-3.358-7.5-7.5-7.5s-7.5 3.357-7.5 7.5z" fill="#d0e6ff21" /><path d="m365.844 96.583v34.909c0 4.142 3.358 7.5 7.5 7.5s7.5-3.358 7.5-7.5v-34.909c0-4.142-3.358-7.5-7.5-7.5s-7.5 3.357-7.5 7.5z" fill="#d0e6ff21" /><path d="m340.495 96.583v34.909c0 4.142 3.358 7.5 7.5 7.5s7.5-3.358 7.5-7.5v-34.909c0-4.142-3.358-7.5-7.5-7.5s-7.5 3.357-7.5 7.5z" fill="#d0e6ff21" /><path d="m449.934 165.382h51.717c5.221 0 9.468-4.247 9.468-9.468v-146.446c0-5.221-4.248-9.468-9.468-9.468h-185.57c-5.221 0-9.468 4.247-9.468 9.468v146.447c0 5.221 4.247 9.468 9.468 9.468h11.283v29.494c0 3.843 2.294 7.276 5.845 8.747 3.59 1.487 7.632.634 10.318-2.052l36.189-36.189h35.217c4.142 0 7.5-3.358 7.5-7.5s-3.358-7.5-7.5-7.5h-37.508c-2.527 0-4.903.983-6.695 2.773l-28.366 28.366v-21.672c0-5.221-4.247-9.468-9.468-9.468h-11.283v-135.382h174.507v135.382h-46.186c-4.142 0-7.5 3.358-7.5 7.5s3.358 7.5 7.5 7.5z" fill="#d0e6ff21" /></g></svg>